Simulation
nRows=44
nColumns=15
endheader
time  TH_x TH_y TH_z SC_y  SC_z  SC_x  AC_y  AC_z  AC_x  GH_y  GH_z  GH_yy  EL_x  PS_y
0.0  0.000000  0.000000  0.000000  -40.97484877243665  6.293857566463187  5.290427962726946  38.89069483647829  -1.3273181803066614  -7.453534803958376  84.46515310048163  7.099696687009622  -53.712089328192334  22.584475748339795  120.000000
0.05745  0.000000  0.000000  0.000000  -39.59746635038471  5.413367882564931  4.277412167586194  39.92812717807916  -1.7838415692143972  -6.134076367188388  49.352885942250836  7.215814146423276  -21.390039041272143  22.027575762278452  120.000000
0.1149  0.000000  0.000000  0.000000  -38.17582875784406  4.352764198475127  3.0802201003510055  41.099650055940884  -2.3904868095668266  -4.756257598688339  23.652618465755115  9.35283100458097  1.516185490526724  21.650836027267314  120.000000
0.17235  0.000000  0.000000  0.000000  -36.786819735066004  3.0676659269687128  1.7251984746231839  42.40180327338016  -3.1372007957705548  -3.273571496956618  8.351919267985156  12.574425865913918  13.971010264654458  21.528753323542627  120.000000
0.2298  0.000000  0.000000  0.000000  -35.5165041904949  1.5158146643303356  0.2612884668993369  43.86683305092051  -3.9924666323150158  -1.6305909925315292  -1.3428542122029228  16.496965193978532  20.747600453012083  21.67011698144791  120.000000
0.28725  0.000000  0.000000  0.000000  -34.42544122697597  -0.28497302402926455  -1.253980134731523  45.5168887269401  -4.918090404409897  0.17296422056480873  -8.062904539725436  21.057727731217316  24.483480139454382  22.020375177288514  120.000000
0.3447  0.000000  0.000000  0.000000  -33.57343810545879  -2.2456908595161194  -2.7180805714662304  47.2997040194092  -5.9026177740098404  2.079100676585272  -13.008202447347758  26.234304706939568  26.405073944564414  22.483391452038155  120.000000
0.40215  0.000000  0.000000  0.000000  -33.00428379482495  -4.218430641006943  -4.016843005725153  49.1110721054242  -6.934933137570775  4.00864470299027  -16.77144871756201  31.949578073782547  27.139419738465186  22.938681762050184  120.000000
0.4596  0.000000  0.000000  0.000000  -32.738700270525065  -5.979973728055841  -5.080702700328427  50.85347423936371  -7.978276594344382  5.917092875826772  -19.67668807984398  38.03843150042521  27.047602096622906  23.283223978218953  120.000000
0.51705  0.000000  0.000000  0.000000  -32.755014188148664  -7.313665061479527  -5.962950682484343  52.484045376978024  -8.876466831865482  7.84365336145442  -21.92245231937009  44.25381391614921  26.360776956317167  23.44598109270643  120.000000
0.5745  0.000000  0.000000  0.000000  -32.99267886945365  -8.068358818168104  -6.776636305852943  54.03381008697037  -9.375286582856265  9.844451973308098  -23.609770760692875  50.30006984696868  25.217230524868533  23.40749804201495  120.000000
0.63195  0.000000  0.000000  0.000000  -33.41327806837604  -8.18117638417047  -7.600441443008643  55.55047268403427  -9.229375847878979  11.907731885037713  -24.792714682970686  55.87667491031169  23.710631325384234  23.186770990770402  120.000000
0.6894  0.000000  0.000000  0.000000  -34.039476109778164  -7.65055205083697  -8.488426481905766  57.05155542549948  -8.274640211497989  13.977823599907879  -25.522935730585736  60.72307265347781  21.928507801069678  22.823195321071438  120.000000
0.74685  0.000000  0.000000  0.000000  -34.89717997324071  -6.531564186638808  -9.454565766357756  58.52065879767859  -6.437697031771523  15.99097479226742  -25.881360174273688  64.65461023732779  19.98139764721948  22.364719666028023  120.000000
0.8043  0.000000  0.000000  0.000000  -35.95045167140306  -4.935898070327343  -10.458666702414671  59.917872814034645  -3.7411144731399513  17.892334697288035  -25.996479911579986  67.58121514217237  18.006809312373942  21.861811833183616  120.000000
0.86175  0.000000  0.000000  0.000000  -37.110845720099825  -3.016607544648459  -11.420434867785088  61.16086285369306  -0.3009008223706933  19.619602744860398  -25.97223646054909  69.4812501363377  16.0638569774823  21.351635012531574  120.000000
0.9192  0.000000  0.000000  0.000000  -38.28996690199111  -0.9398128541019258  -12.241858580704932  62.13840040768369  3.6852454762497064  21.107742388958588  -25.81100864537669  70.40248987315998  14.079031475656496  20.846875379100016  120.000000
0.97665  0.000000  0.000000  0.000000  -39.43210606180577  1.1393527826893468  -12.81645158822905  62.78161039211247  7.9529398776522875  22.335226338673216  -25.485281557644957  70.52181511481669  11.996035024995745  20.356171723811567  120.000000
1.0341  0.000000  0.000000  0.000000  -40.520579013127225  3.0927461460743086  -13.051216333214018  63.077823241460905  12.196723909320314  23.335676817862076  -24.988045357247426  70.1298707643107  9.857000003818358  19.89041504299447  120.000000
1.09155  0.000000  0.000000  0.000000  -41.560305346893266  4.836778077432514  -12.88324349294937  63.07026751627711  16.10014895470532  24.162138124820093  -24.31777291119909  69.54900989798699  7.759453048298269  19.45566132675278  120.000000
1.149  0.000000  0.000000  0.000000  -42.55530768393905  6.352672506230474  -12.268126241144488  62.84428962463445  19.409048859597082  24.85083819145262  -23.499238681164616  69.00733581258368  5.8321480496242115  19.050645844605402  120.000000
1.20645  0.000000  0.000000  0.000000  -43.51423686231912  7.6710194620307  -11.181449911680494  62.49684537217793  21.98596425987482  25.41194494627134  -22.593966928638167  68.57913070305582  4.2067648595550615  18.67162369916577  120.000000
1.2639  0.000000  0.000000  0.000000  -44.45161870466825  8.821119562548017  -9.655477493594079  62.11763295326888  23.810743673799077  25.839466493726405  -21.669636238363395  68.25284804552089  2.9583936419354737  18.315741176718618  120.000000
1.32135  0.000000  0.000000  0.000000  -45.36764007550058  9.802376844954653  -7.810277544104821  61.778344329859955  24.954248288643615  26.125003724400973  -20.777462669145407  68.00561964046675  2.0772164122743044  17.984928097064667  120.000000
1.3788  0.000000  0.000000  0.000000  -46.230696255828136  10.590832125558507  -5.843801213090638  61.52472858079923  25.54670853276551  26.266789399213017  -19.957533586340716  67.81982351680007  1.4875904654516459  17.686484160258534  120.000000
1.43625  0.000000  0.000000  0.000000  -46.977573132796024  11.163941536235782  -3.9949277427573078  61.377897698352754  25.73339221180348  26.27119402474186  -19.24548404916955  67.681801542193  1.0842771362945076  17.43044625917264  120.000000
1.4937  0.000000  0.000000  0.000000  -47.533588917399925  11.511423529307688  -2.4900908661116867  61.34032725925123  25.643199977476453  26.154070005751027  -18.67930952143495  67.57825964325929  0.768784577733508  17.22694313005343  120.000000
1.55115  0.000000  0.000000  0.000000  -47.83548854952417  11.637585887483425  -1.5132876970472522  61.40893283237247  25.37054763372862  25.93949863337979  -18.295864432712413  67.50165155594662  0.4715473480789274  17.08330646942352  120.000000
1.6086  0.000000  0.000000  0.000000  -47.85060347648565  11.553558041219627  -1.1845138018619126  61.58521430123371  24.96730830057016  25.661053119158215  -18.124060452260856  67.44907060367277  0.16062565765776068  17.003986226463105  120.000000
1.66605  0.000000  0.000000  0.000000  -47.58462901035983  11.26967407510011  -1.5480097037349358  61.874132411256525  24.44397610604598  25.363162461199764  -18.17877727048024  67.42067864562556  -0.16042274429945497  16.989146079140433  120.000000
1.7235  0.000000  0.000000  0.000000  -47.08092180563798  10.79293222036683  -2.567184530500426  62.279626478289735  23.775167966934  25.099640104562713  -18.455510680264446  67.41807500748077  -0.4617876798298928  17.031501002791945  120.000000
1.78095  0.000000  0.000000  0.000000  -46.40708103828116  10.127620429733911  -4.128443088949735  62.79524370776195  22.90827241007556  24.926724686485596  -18.931253582888164  67.44356924431678  -0.6978527510165932  17.113819783769042  120.000000
1.8384  0.000000  0.000000  0.000000  -45.63408517797085  9.279586376735397  -6.058616509326696  63.397569658737666  21.769821975379553  24.889504947837636  -19.5687068872188  67.49953200081416  -0.8205001995630014  17.210462626899453  120.000000
1.89585  0.000000  0.000000  0.000000  -44.81310389910666  8.253956338556762  -8.149788074999421  64.04483485602688  20.272764971297146  25.004265746762904  -20.323926528576248  67.58720777489691  -0.7924013974665822  17.294759602282042  120.000000
1.9533  0.000000  0.000000  0.000000  -43.961190852015754  7.0470593354669075  -10.186865855385063  64.67722727472474  18.332122125602318  25.244693775960968  -21.15427427683449  67.70853400237493  -0.6034222939012889  17.34597663983268  120.000000
2.01075  0.000000  0.000000  0.000000  -43.0645040435428  5.6417993100079205  -11.969112938469005  65.217417847228  15.891035114855041  25.537858591763538  -22.028654605710607  67.85873653404245  -0.28014117894608537  17.35453233031247  120.000000
2.0682  0.000000  0.000000  0.000000  -42.087239272950036  4.00846419434638  -13.330731645720364  65.57870294124459  12.937033180439274  25.768021435202844  -22.92579911690203  68.02489143011296  0.10837318135862109  17.319702084056892  120.000000
2.1256500000000003  0.000000  0.000000  0.000000  -40.988063560624525  2.1127980925583114  -14.155714811062001  65.68172037736021  9.493510102366717  25.79431907920738  -23.81210093926788  68.20419776765745  0.4515234115000879  17.24154026914626  120.000000
2.1831  0.000000  0.000000  0.000000  -39.75036963049209  -0.03748512925345318  -14.361476054228634  65.45937392150516  5.633585135125202  25.478377280027285  -24.626283400464136  68.35270225785969  0.6350393957919832  17.11429507294704  120.000000
2.24055  0.000000  0.000000  0.000000  -38.415577458138564  -2.295213112724142  -13.87108546994651  64.85994957966192  1.5153891031729565  24.69900104226009  -25.29656140284772  68.23086222089567  0.623742699761048  16.92750055914608  120.000000
2.298  0.000000  0.000000  0.000000  -37.09875802119817  -4.3943273405574725  -12.640863936259223  63.8639843896814  -2.646459579487871  23.352484962276776  -25.74429659888403  67.45862738411148  0.4954077493139477  16.67608339783761  120.000000
2.3554500000000003  0.000000  0.000000  0.000000  -35.94478674480141  -6.090809247708715  -10.712774519517525  62.49750722848975  -6.655521700968575  21.376763513852  -25.887401745007022  65.77418217743272  0.3873463531342806  16.35422360367574  120.000000
2.4129  0.000000  0.000000  0.000000  -35.045325593559035  -7.268804981432157  -8.199050525916684  60.823889123720946  -10.35576446023261  18.776065480987377  -25.695272044438436  63.125878490319465  0.4593690125086883  15.951490815485132  120.000000
2.47035  0.000000  0.000000  0.000000  -34.38800077460659  -7.940810878581651  -5.239693245370162  58.92749437423247  -13.628998904619282  15.621231437145463  -25.21521521582349  59.61756056629298  0.8784345360300968  15.470815971964868  120.000000
